<?xml version="1.0" encoding="utf-8"?>
<!-- Generator: Adobe Illustrator 16.0.0, SVG Export Plug-In . SVG Version: 6.00 Build 0)  -->
<!DOCTYPE svg PUBLIC "-//W3C//DTD SVG 1.1//EN" "http://www.w3.org/Graphics/SVG/1.1/DTD/svg11.dtd">
<svg version="1.1" id="Layer_1" xmlns="http://www.w3.org/2000/svg" xmlns:xlink="http://www.w3.org/1999/xlink" x="0px" y="0px"
	 width="24.42px" height="24.48px" viewBox="0 0 24.42 24.48" enable-background="new 0 0 24.42 24.48" xml:space="preserve">
<path fill="#FFFFFF" d="M17.427,3.736H6.993c-1.812,0-3.287,1.474-3.287,3.287v3.472v6.963c0,1.812,1.475,3.287,3.287,3.287h10.434
	c1.812,0,3.287-1.474,3.287-3.287v-6.963V7.023C20.714,5.21,19.239,3.736,17.427,3.736z M18.37,5.697l0.376-0.001V6.07v2.508
	l-2.874,0.009l-0.01-2.883L18.37,5.697z M9.783,10.495c0.544-0.754,1.428-1.248,2.427-1.248s1.883,0.494,2.427,1.248
	c0.355,0.492,0.567,1.094,0.567,1.746c0,1.65-1.344,2.993-2.994,2.993s-2.993-1.343-2.993-2.993
	C9.217,11.588,9.429,10.987,9.783,10.495z M19.057,17.458c0,0.899-0.73,1.629-1.63,1.629H6.993c-0.899,0-1.63-0.73-1.63-1.629
	v-6.963h2.539c-0.22,0.54-0.343,1.128-0.343,1.746c0,2.564,2.086,4.651,4.65,4.651s4.65-2.087,4.65-4.651
	c0-0.617-0.124-1.206-0.343-1.746h2.539V17.458z"/>
</svg>
