<?xml version="1.0" encoding="utf-8"?>
<!-- Generator: Adobe Illustrator 16.0.0, SVG Export Plug-In . SVG Version: 6.00 Build 0)  -->
<!DOCTYPE svg PUBLIC "-//W3C//DTD SVG 1.1//EN" "http://www.w3.org/Graphics/SVG/1.1/DTD/svg11.dtd">
<svg version="1.1" id="Layer_1" xmlns="http://www.w3.org/2000/svg" xmlns:xlink="http://www.w3.org/1999/xlink" x="0px" y="0px"
	 width="40px" height="34px" viewBox="0 0 40 34" enable-background="new 0 0 40 34" xml:space="preserve">
<g id="Your_Icon">
	<g>
		<path d="M20.519,29.155l-0.547-0.395c-0.494-0.355-12.084-8.78-12.084-15.729c0-4.197,2.631-7.017,6.549-7.017
			c2.092,0,4.263,1.067,6.082,2.961c1.818-1.894,3.988-2.961,6.081-2.961c3.917,0,6.55,2.82,6.55,7.017
			c0,6.949-11.591,15.374-12.084,15.729L20.519,29.155z M14.437,7.886c-3.449,0-4.678,2.658-4.678,5.146
			c0,4.708,7.31,11.203,10.76,13.807c3.449-2.604,10.759-9.099,10.759-13.807c0-2.487-1.229-5.146-4.678-5.146
			c-1.635,0-3.382,0.917-4.878,2.54c1.26,1.759,2.023,3.727,2.07,5.386c0.03,1.036-0.374,2.087-1.078,2.812
			c-0.599,0.617-1.379,0.957-2.195,0.957c-0.817,0-1.596-0.339-2.195-0.956c-0.705-0.725-1.108-1.777-1.08-2.813
			c0.047-1.659,0.811-3.627,2.07-5.386C17.819,8.803,16.071,7.886,14.437,7.886z M20.519,11.984
			c-0.851,1.322-1.372,2.737-1.404,3.881c-0.015,0.534,0.196,1.091,0.55,1.456c0.504,0.516,1.206,0.516,1.708-0.001
			c0.354-0.364,0.565-0.922,0.55-1.455C21.89,14.721,21.368,13.306,20.519,11.984z"/>
	</g>
</g>
</svg>
