<?xml version="1.0" encoding="utf-8"?>
<!-- Generator: Adobe Illustrator 16.0.0, SVG Export Plug-In . SVG Version: 6.00 Build 0)  -->
<!DOCTYPE svg PUBLIC "-//W3C//DTD SVG 1.1//EN" "http://www.w3.org/Graphics/SVG/1.1/DTD/svg11.dtd">
<svg version="1.1" id="Layer_1" xmlns="http://www.w3.org/2000/svg" xmlns:xlink="http://www.w3.org/1999/xlink" x="0px" y="0px"
	 width="57.5px" height="71.5px" viewBox="0 0 57.5 71.5" enable-background="new 0 0 57.5 71.5" xml:space="preserve">
<path d="M18.447,28.844c2.478,2.222,5.664,3.655,9.18,3.915v23.077c-3.871-8.145-12.175-13.792-21.778-13.792
	c-0.645,0-1.167,0.522-1.167,1.167c0,13.29,10.812,24.103,24.103,24.103c0.006,0,0.012,0,0.016,0c0.037,0,0.071-0.008,0.107-0.012
	c0.02,0.002,0.036,0.012,0.055,0.012c0.03,0,0.059-0.016,0.088-0.018C42.207,67.139,52.862,56.393,52.862,43.2
	c0-0.644-0.522-1.166-1.167-1.166c-9.564,0-17.844,5.6-21.735,13.693V32.759c7.993-0.61,14.314-7.295,14.314-15.442V3.202
	c0.001-0.035-0.005-0.069-0.007-0.104c-0.008-0.104-0.027-0.203-0.059-0.298c-0.013-0.037-0.022-0.072-0.038-0.107
	c-0.052-0.115-0.122-0.219-0.206-0.311c-0.012-0.011-0.015-0.026-0.025-0.038c-0.009-0.009-0.021-0.012-0.03-0.021
	c-0.101-0.095-0.216-0.175-0.345-0.229c-0.014-0.006-0.026-0.007-0.039-0.012c-0.127-0.049-0.264-0.078-0.406-0.079
	c-0.003,0-0.004-0.001-0.007-0.001C43.111,2.001,43.109,2,43.107,2c-0.341,0-0.645,0.148-0.857,0.381l-0.109,0.109
	c-0.145,0.059-0.281,0.144-0.396,0.263l-5.909,6.011l-6.423-6.423c-0.438-0.437-1.213-0.438-1.649,0L21.515,8.59l-6.249-6.248
	c-0.007-0.007-0.018-0.01-0.026-0.017c-0.101-0.097-0.219-0.178-0.351-0.233c-0.011-0.005-0.023-0.007-0.035-0.011
	c-0.127-0.05-0.264-0.078-0.408-0.08C14.444,2.001,14.442,2,14.441,2c-0.002,0-0.002,0-0.004,0c-0.645,0-1.166,0.522-1.166,1.166
	v14.147c0,4.228,1.705,8.062,4.459,10.862L18.447,28.844z M28.773,30.485c-3.096,0-5.939-1.08-8.189-2.874l15.143-15.406
	l6.215-6.215v11.326C41.941,24.578,36.034,30.485,28.773,30.485z M28.588,4.818L34.2,10.43l-0.169,0.173l-5.252,5.251l-5.613-5.613
	L28.588,4.818z M15.604,5.979l11.585,11.585l-8.292,8.435c-2.042-2.321-3.293-5.354-3.293-8.682V5.979z M7.048,44.409
	c10.351,0.565,18.797,8.392,20.323,18.46l-9.357-9.355c-0.455-0.457-1.194-0.457-1.649,0c-0.456,0.455-0.456,1.193,0,1.648
	l9.633,9.635C15.695,63.473,7.622,54.926,7.048,44.409z M32.035,64.723l9.357-9.357c0.455-0.455,0.455-1.193,0-1.648
	c-0.455-0.457-1.195-0.457-1.65,0l-9.633,9.633c1.323-10.303,9.871-18.377,20.387-18.951C49.932,54.75,42.105,63.197,32.035,64.723z
	"/>
</svg>
