<?xml version="1.0" encoding="utf-8"?>
<!-- Generator: Adobe Illustrator 16.0.0, SVG Export Plug-In . SVG Version: 6.00 Build 0)  -->
<!DOCTYPE svg PUBLIC "-//W3C//DTD SVG 1.1//EN" "http://www.w3.org/Graphics/SVG/1.1/DTD/svg11.dtd">
<svg version="1.1" id="Layer_1" xmlns="http://www.w3.org/2000/svg" xmlns:xlink="http://www.w3.org/1999/xlink" x="0px" y="0px"
	 width="72px" height="72px" viewBox="-143.417 -71.083 72 72" enable-background="new -143.417 -71.083 72 72"
	 xml:space="preserve">
<g>
	<circle fill="#FFFFFF" cx="-107.926" cy="-35.689" r="30.824"/>
	<path d="M-114.463-39.37c1.569,1.408,3.586,2.315,5.813,2.479v14.613c-2.451-5.157-7.709-8.734-13.79-8.734
		c-0.408,0-0.739,0.332-0.739,0.739c0,8.416,6.846,15.263,15.262,15.263c0.004,0,0.007,0,0.01,0c0.023,0,0.045-0.005,0.068-0.008
		c0.012,0.001,0.022,0.008,0.035,0.008c0.019,0,0.037-0.01,0.056-0.012c8.331-0.099,15.077-6.903,15.077-15.257
		c0-0.407-0.33-0.738-0.738-0.738c-6.056,0-11.299,3.545-13.763,8.67v-14.543c5.061-0.387,9.063-4.619,9.063-9.779v-8.937
		c0.001-0.022-0.002-0.043-0.003-0.066c-0.006-0.065-0.018-0.129-0.038-0.189c-0.008-0.022-0.014-0.045-0.024-0.067
		c-0.033-0.073-0.077-0.139-0.13-0.197c-0.007-0.007-0.009-0.017-0.015-0.024c-0.007-0.005-0.014-0.007-0.02-0.013
		c-0.064-0.061-0.137-0.11-0.218-0.145c-0.009-0.004-0.017-0.005-0.025-0.008c-0.08-0.031-0.167-0.049-0.257-0.05
		c-0.001,0-0.002,0-0.005,0c0-0.001-0.001-0.002-0.002-0.002c-0.216,0-0.409,0.095-0.543,0.241l-0.069,0.069
		c-0.091,0.037-0.178,0.091-0.25,0.166l-3.741,3.807l-4.067-4.067c-0.277-0.277-0.768-0.278-1.044,0l-3.957,3.957l-3.957-3.957
		c-0.005-0.004-0.011-0.006-0.017-0.011c-0.063-0.061-0.139-0.113-0.222-0.147c-0.007-0.003-0.014-0.004-0.022-0.006
		c-0.081-0.031-0.167-0.05-0.258-0.051c-0.002,0-0.003-0.001-0.003-0.001c-0.001,0-0.001,0-0.002,0
		c-0.408,0-0.738,0.331-0.738,0.739v8.957c0,2.678,1.08,5.106,2.824,6.879L-114.463-39.37z M-107.925-38.332
		c-1.96,0-3.761-0.684-5.186-1.819l9.589-9.755l3.935-3.935v7.171C-99.586-42.071-103.327-38.332-107.925-38.332z M-108.042-54.583
		l3.554,3.553l-0.107,0.11l-3.326,3.324l-3.554-3.553L-108.042-54.583z M-116.263-53.849l7.335,7.336l-5.25,5.341
		c-1.293-1.47-2.085-3.391-2.085-5.499V-53.849z M-121.681-29.514c6.554,0.358,11.902,5.314,12.869,11.689l-5.925-5.924
		c-0.289-0.29-0.756-0.29-1.044,0c-0.289,0.288-0.289,0.756,0,1.043l6.1,6.102C-116.206-17.443-121.318-22.854-121.681-29.514z
		 M-105.859-16.651l5.925-5.925c0.288-0.289,0.288-0.755,0-1.044c-0.288-0.289-0.757-0.289-1.045,0l-6.1,6.101
		c0.837-6.524,6.25-11.637,12.909-12C-94.527-22.966-99.482-17.617-105.859-16.651z"/>
</g>
</svg>
