<?xml version="1.0" encoding="utf-8"?>
<!-- Generator: Adobe Illustrator 16.0.0, SVG Export Plug-In . SVG Version: 6.00 Build 0)  -->
<!DOCTYPE svg PUBLIC "-//W3C//DTD SVG 1.1//EN" "http://www.w3.org/Graphics/SVG/1.1/DTD/svg11.dtd">
<svg version="1.1" id="Layer_1" xmlns="http://www.w3.org/2000/svg" xmlns:xlink="http://www.w3.org/1999/xlink" x="0px" y="0px"
	 width="24.42px" height="24.48px" viewBox="0 0 24.42 24.48" enable-background="new 0 0 24.42 24.48" xml:space="preserve">
<path fill="#FFFFFF" d="M20.729,6.956c-0.627,0.278-1.301,0.466-2.008,0.55c0.723-0.433,1.277-1.117,1.537-1.933
	c-0.676,0.4-1.423,0.691-2.221,0.847c-0.636-0.679-1.545-1.104-2.551-1.104c-1.93,0-3.494,1.565-3.494,3.495
	c0,0.274,0.029,0.541,0.09,0.796C9.178,9.462,6.603,8.072,4.877,5.956C4.576,6.474,4.404,7.074,4.404,7.714
	c0,1.211,0.617,2.282,1.555,2.909c-0.572-0.018-1.111-0.176-1.584-0.437v0.043c0,1.694,1.205,3.107,2.805,3.427
	c-0.293,0.082-0.602,0.123-0.921,0.123c-0.226,0-0.444-0.021-0.657-0.062c0.444,1.388,1.734,2.399,3.265,2.426
	c-1.196,0.938-2.704,1.497-4.341,1.497c-0.282,0-0.561-0.016-0.834-0.048c1.547,0.991,3.385,1.57,5.357,1.57
	c6.431,0,9.945-5.325,9.945-9.945c0-0.152-0.003-0.303-0.01-0.452C19.668,8.272,20.262,7.657,20.729,6.956"/>
</svg>
